#!OML:ASF H:\Dans Jumps\Project 1\Capture day 1\Session 1\subject.ASF
:FULLY-SPECIFIED
:DEGREES
575
root 0.379696 17.7823 3.00664 7.40633 -1.68992 -1.4575
lowerback -2.55791 0.0420964 -0.103354
upperback 2.60373 0.00763942 1.41041
thorax 4.11656 -0.0222947 1.5129
lowerneck -13.3179 0.236842 -1.70977
upperneck 26.7131 0.629455 0.473756
head 10.7822 0.169544 0.544819
rclavicle 7.25564e-015 1.41137e-014
rhumerus -25.1276 -14.8017 -82.4206
rradius 23.4093
rwrist 34.6089
rhand -21.9991 -28.9903
rfingers 7.12502
rthumb 4.40961 -58.9244
lclavicle 7.25564e-015 1.41137e-014
lhumerus -20.6941 3.24525 88.5937
lradius 14.0611
lwrist -1.82772
lhand -25.1153 -6.66916
lfingers 7.12502
lthumb 1.40023 23.306
rfemur -14.0545 -1.60466 19.6942
rtibia 20.1317
rfoot -11.7932 -0.0745172
rtoes 17.8619
lfemur -10.2745 6.12567 -17.9587
ltibia 15.722
lfoot -9.16376 6.47175
ltoes 1.77124
576
root 0.379372 17.7822 3.00298 7.38946 -1.69806 -1.45348
lowerback -2.54198 0.0459063 -0.116697
upperback 2.59325 0.0137913 1.40415
thorax 4.09647 -0.0194049 1.51418
lowerneck -13.3247 0.230842 -1.71585
upperneck 26.7083 0.619469 0.484997
head 10.7818 0.165765 0.548603
rclavicle 4.37326e-015 9.74045e-015
rhumerus -25.1235 -14.7404 -82.4464
rradius 23.4309
rwrist 34.5571
rhand -22.0111 -28.9794
rfingers 7.12502
rthumb 4.398 -58.9137
lclavicle 4.37326e-015 9.74045e-015
lhumerus -20.7066 3.24353 88.5701
lradius 14.0519
lwrist -1.83486
lhand -25.1138 -6.65233
lfingers 7.12502
lthumb 1.40167 23.3228
rfemur -14.0551 -1.59157 19.6906
rtibia 20.1385
rfoot -11.7839 -0.083449
rtoes 17.8518
lfemur -10.2717 6.13108 -17.9618
ltibia 15.7279
lfoot -9.15806 6.47411
ltoes 1.75837
577
root 0.379092 17.782 2.99941 7.37242 -1.70472 -1.45386
lowerback -2.52639 0.0500482 -0.123073
upperback 2.58313 0.0200237 1.39892
thorax 4.07693 -0.0162862 1.51263
lowerneck -13.3245 0.223078 -1.72829
upperneck 26.7011 0.6074 0.499942
head 10.7791 0.160866 0.554497
rclavicle -2.48481e-015 9.93923e-016
rhumerus -25.1233 -14.6779 -82.4703
rradius 23.456
rwrist 34.5072
rhand -22.0297 -28.9695
rfingers 7.12502
rthumb 4.3801 -58.9042
lclavicle -2.48481e-015 9.93923e-016
lhumerus -20.7131 3.24106 88.5472
lradius 14.0354
lwrist -1.84571
lhand -25.1191 -6.65374
lfingers 7.12502
lthumb 1.39654 23.3214
rfemur -14.0534 -1.57868 19.6918
rtibia 20.1425
rfoot -11.7733 -0.0937495
rtoes 17.8394
lfemur -10.2683 6.13451 -17.9599
ltibia 15.7339
lfoot -9.15093 6.47762
ltoes 1.74327
578
root 0.378874 17.7819 2.996 7.35543 -1.70781 -1.45523
lowerback -2.5136 0.0533423 -0.126017
upperback 2.57475 0.0249038 1.39437
thorax 4.06085 -0.0137705 1.50979
lowerneck -13.3197 0.21508 -1.74471
upperneck 26.6884 0.595672 0.515683
head 10.7734 0.155863 0.561357
rclavicle 6.4605e-016 -4.37326e-015
rhumerus -25.1225 -14.6253 -82.4896
rradius 23.4811
rwrist 34.4683
rhand -22.0426 -28.9683
rfingers 7.12502
rthumb 4.36764 -58.9033
lclavicle 6.4605e-016 -4.37326e-015
lhumerus -20.7135 3.23978 88.5257
lradius 14.0173
lwrist -1.85751
lhand -25.1197 -6.66154
lfingers 7.12502
lthumb 1.396 23.3136
rfemur -14.0489 -1.56965 19.6942
rtibia 20.144
rfoot -11.7624 -0.102124
rtoes 17.8357
lfemur -10.2645 6.13584 -17.9568
ltibia 15.7399
lfoot -9.14353 6.47961
ltoes 1.73832
579
root 0.378682 17.7818 2.99276 7.33828 -1.70864 -1.45947
lowerback -2.50248 0.0557291 -0.125454
upperback 2.56783 0.028305 1.39207
thorax 4.04726 -0.0119395 1.50722
lowerneck -13.322 0.209503 -1.758
upperneck 26.6783 0.588519 0.525171
head 10.7701 0.152486 0.566069
rclavicle 1.59028e-015 -1.59028e-015
rhumerus -25.1171 -14.5891 -82.5026
rradius 23.4998
rwrist 34.4464
rhand -22.049 -28.9716
rfingers 7.12502
rthumb 4.36149 -58.9067
lclavicle 1.59028e-015 -1.59028e-015
lhumerus -20.7088 3.24334 88.5057
lradius 14.0002
lwrist -1.87376
lhand -25.1245 -6.6775
lfingers 7.12502
lthumb 1.39132 23.2977
rfemur -14.0419 -1.56323 19.6997
rtibia 20.1434
rfoot -11.7513 -0.109421
rtoes 17.8294
lfemur -10.2595 6.13427 -17.9502
ltibia 15.7448
lfoot -9.13655 6.48082
ltoes 1.74952
580
root 0.378575 17.7817 2.98972 7.32285 -1.70552 -1.46136
lowerback -2.49616 0.0566319 -0.12495
upperback 2.56146 0.0296816 1.38998
thorax 4.03703 -0.0111373 1.50481
lowerneck -13.3283 0.206467 -1.76545
upperneck 26.6695 0.586403 0.524655
head 10.7681 0.150785 0.566861
rclavicle -1.3418e-015 -5.56597e-015
rhumerus -25.1109 -14.5681 -82.5093
rradius 23.5172
rwrist 34.4384
rhand -22.0465 -28.982
rfingers 7.12502
rthumb 4.36383 -58.9171
lclavicle -1.3418e-015 -5.56597e-015
lhumerus -20.7013 3.24939 88.4872
lradius 13.9842
lwrist -1.89126
lhand -25.13 -6.69859
lfingers 7.12502
lthumb 1.38598 23.2767
rfemur -14.0353 -1.56664 19.7027
rtibia 20.1432
rfoot -11.7423 -0.111783
rtoes 17.8248
lfemur -10.2545 6.13148 -17.9466
ltibia 15.746
lfoot -9.12938 6.4795
ltoes 1.77191
581
root 0.378506 17.7817 2.98693 7.3077 -1.70159 -1.45846
lowerback -2.49225 0.0561057 -0.129297
upperback 2.55758 0.0293363 1.38739
thorax 4.03078 -0.0113526 1.50452
lowerneck -13.3577 0.207596 -1.76092
upperneck 26.6692 0.590839 0.512949
head 10.7738 0.151856 0.56256
rclavicle 6.4605e-016 -3.97569e-016
rhumerus -25.09 -14.5827 -82.5087
rradius 23.5123
rwrist 34.4631
rhand -22.0422 -28.9871
rfingers 7.12502
rthumb 4.36802 -58.9221
lclavicle 6.4605e-016 -3.97569e-016
lhumerus -20.689 3.25276 88.4708
lradius 13.9761
lwrist -1.90024
lhand -25.1358 -6.71849
lfingers 7.12502
lthumb 1.38042 23.2568
rfemur -14.0288 -1.57528 19.7004
rtibia 20.1445
rfoot -11.737 -0.110472
rtoes 17.8112
lfemur -10.2467 6.12456 -17.9483
ltibia 15.7426
lfoot -9.12115 6.4807
ltoes 1.79968
582
root 0.378479 17.7816 2.98433 7.29206 -1.69602 -1.45219
lowerback -2.48922 0.0551075 -0.135767
upperback 2.55399 0.0284531 1.38455
thorax 4.02536 -0.0118979 1.50514
lowerneck -13.3898 0.209737 -1.75255
upperneck 26.6685 0.597175 0.496322
head 10.78 0.15359 0.556089
rclavicle 2.68359e-015 2.5842e-015
rhumerus -25.0702 -14.6044 -82.5046
rradius 23.5072
rwrist 34.4843
rhand -22.0382 -28.9948
rfingers 7.12502
rthumb 4.37188 -58.9297
lclavicle 2.68359e-015 2.5842e-015
lhumerus -20.6766 3.26955 88.4543
lradius 13.9705
lwrist -1.91845
lhand -25.1463 -6.73881
lfingers 7.12502
lthumb 1.37029 23.2365
rfemur -14.0227 -1.58887 19.6941
rtibia 20.149
rfoot -11.7359 -0.10589
rtoes 17.7968
lfemur -10.2354 6.11481 -17.9538
ltibia 15.733
lfoot -9.11028 6.48248
ltoes 1.82085
583
root 0.378491 17.7815 2.98178 7.27755 -1.68896 -1.44362
lowerback -2.48748 0.0530869 -0.144608
upperback 2.54943 0.0262765 1.38264
thorax 4.0197 -0.0131655 1.50798
lowerneck -13.4186 0.212521 -1.74584
upperneck 26.6647 0.605 0.478843
head 10.7843 0.155754 0.549762
rclavicle -3.47873e-016 1.03368e-014
rhumerus -25.0538 -14.6222 -82.4979
rradius 23.5035
rwrist 34.4943
rhand -22.0328 -28.9981
rfingers 7.12502
rthumb 4.37713 -58.9328
lclavicle -3.47873e-016 1.03368e-014
lhumerus -20.6654 3.29645 88.4396
lradius 13.9672
lwrist -1.93719
lhand -25.1581 -6.7557
lfingers 7.12502
lthumb 1.3589 23.2197
rfemur -14.0187 -1.60287 19.6849
rtibia 20.1558
rfoot -11.7368 -0.10115
rtoes 17.786
lfemur -10.2235 6.10293 -17.9621
ltibia 15.7196
lfoot -9.09742 6.48479
ltoes 1.83437
584
root 0.378494 17.7816 2.97921 7.2648 -1.68245 -1.43139
lowerback -2.48653 0.0517051 -0.156925
upperback 2.54389 0.0251256 1.3803
thorax 4.01345 -0.01401 1.51238
lowerneck -13.4405 0.213925 -1.74448
upperneck 26.6531 0.610552 0.466697
head 10.7843 0.15705 0.545908
rclavicle -2.93207e-015 3.97569e-015
rhumerus -25.0386 -14.6503 -82.486
rradius 23.4953
rwrist 34.5048
rhand -22.0294 -28.9896
rfingers 7.12502
rthumb 4.38038 -58.9243
lclavicle -2.93207e-015 3.97569e-015
lhumerus -20.6534 3.33524 88.4249
lradius 13.9623
lwrist -1.96385
lhand -25.1634 -6.76358
lfingers 7.12502
lthumb 1.35371 23.2119
rfemur -14.018 -1.61359 19.6713
rtibia 20.1641
rfoot -11.7376 -0.0978934
rtoes 17.7807
lfemur -10.213 6.08976 -17.9745
ltibia 15.7045
lfoot -9.08274 6.48753
ltoes 1.84646
585
root 0.378515 17.7817 2.97651 7.256 -1.67436 -1.42211
lowerback -2.4885 0.0503133 -0.165782
upperback 2.53817 0.0237311 1.37969
thorax 4.00867 -0.0149068 1.51661
lowerneck -13.4546 0.213558 -1.75187
upperneck 26.6298 0.613176 0.463176
head 10.7784 0.157263 0.546184
rclavicle -1.54058e-015 -9.93923e-015
rhumerus -25.0207 -14.6847 -82.4707
rradius 23.4818
rwrist 34.5121
rhand -22.0248 -28.9714
rfingers 7.12502
rthumb 4.38478 -58.906
lclavicle -1.54058e-015 -9.93923e-015
lhumerus -20.6394 3.37401 88.414
lradius 13.9591
lwrist -1.98538
lhand -25.1755 -6.77579
lfingers 7.12502
lthumb 1.3421 23.1997
rfemur -14.0222 -1.6226 19.6609
rtibia 20.1727
rfoot -11.7369 -0.0966343
rtoes 17.78
lfemur -10.2077 6.07713 -17.984
ltibia 15.6898
lfoot -9.06783 6.48889
ltoes 1.85717
586
root 0.378536 17.7818 2.97371 7.25055 -1.66288 -1.41164
lowerback -2.49111 0.0482648 -0.17528
upperback 2.53102 0.0214813 1.37959
thorax 4.0028 -0.0162444 1.52169
lowerneck -13.4619 0.212156 -1.76753
upperneck 26.5971 0.613671 0.468877
head 10.7676 0.156864 0.550841
rclavicle 3.32964e-015 -7.95139e-015
rhumerus -25.0009 -14.7331 -82.449
rradius 23.4593
rwrist 34.532
rhand -22.0141 -28.9423
rfingers 7.12502
rthumb 4.39511 -58.8767
lclavicle 3.32964e-015 -7.95139e-015
lhumerus -20.6244 3.40374 88.4095
lradius 13.9571
lwrist -1.98771
lhand -25.1911 -6.78718
lfingers 7.12502
lthumb 1.32702 23.1884
rfemur -14.0299 -1.63298 19.6494
rtibia 20.1811
rfoot -11.7351 -0.0965124
rtoes 17.7853
lfemur -10.2074 6.06421 -17.9953
ltibia 15.6765
lfoot -9.05351 6.48784
ltoes 1.86531
